<?xml version="1.0" ?><!DOCTYPE svg  PUBLIC '-//W3C//DTD SVG 1.1//EN'  'http://www.w3.org/Graphics/SVG/1.1/DTD/svg11.dtd'><svg enable-background="new 0 0 58 58" id="male-avatar" version="1.1" viewBox="0 0 58 58" xml:space="preserve" xmlns="http://www.w3.org/2000/svg" xmlns:xlink="http://www.w3.org/1999/xlink"><g><rect fill="#C0DFCF" height="58" width="58"/><g><g><rect fill="#FBD0C4" height="4.333" width="16.666" x="20.8086" y="49.083"/><path d="M29.2471,50.4795c-5.5137,0-10.5674-4.2051-13.8506-9.7383c0.0146-0.0644,0.0381-0.123,0.0381-0.1885     V25.6953c0-1.6973,1.3799-3.0771,3.0761-3.0771h21.5225c1.6953,0,3.0762,1.3798,3.0762,3.0771v14.8574     c0,0.044,0.0195,0.083,0.0234,0.126C39.8516,46.2422,34.7813,50.4795,29.2471,50.4795z" fill="#FBD0C4"/><path d="M46.9434,27.6445c0,3.1592-0.7735,6.5303-2.1172,9.6875V25.6953c0-2.6435-2.1504-4.7939-4.793-4.7939     H18.5107c-2.6425,0-4.7929,2.1504-4.7929,4.7939v11.7559c-1.375-3.1924-2.167-6.6094-2.167-9.8067v-8.7509     c-0.001-0.0284-0.0791-2.8663,1.7744-4.8272c1.1699-1.2402,2.8867-1.8945,5.1006-1.9424     c7.4111-0.166,16.3965-4.167,20.2754-6.4228c1.1601,1.4375,2.6308,3.4922,3.25,4.8808c0.0058,0.0235,0.0019,0.0469,0.0097,0.0703     c1.1856,3.2188-0.8535,4.5118-1.0957,4.6524c-0.4101,0.2295-0.5586,0.75-0.332,1.1621c0.1582,0.2832,0.4512,0.4434,0.7539,0.4434     c0.1387,0,0.2813-0.0342,0.4141-0.1065c1.0039-0.5537,2.4843-2.1445,2.3222-4.6885c1.4141,0.0957,2.92,0.7559,2.92,3.1582     V27.6445z" fill="#FFFFFF"/></g><g><g><polygon fill="#43525B" points="38.3848,53.417 36.3848,53.417 36.3848,48.5596 38.3848,48.5596 38.3848,53.417     "/></g><g><polygon fill="#43525B" points="22.1084,53.417 20.1084,53.417 20.1084,48.5596 22.1084,48.5596 22.1084,53.417     "/></g></g><g><g><path d="M29.2471,52.3379c-10.5313,0-19.5547-13.5781-19.5547-24.6934v-8.7187      c-0.0049-0.1065-0.1182-3.5811,2.2666-6.1211c1.5254-1.624,3.6865-2.4785,6.4248-2.5391      c8.2139-0.1836,17.8496-5.1982,19.9805-6.5302c0.4238-0.2647,0.9736-0.1768,1.2949,0.2031      c0.3642,0.4316,3.2451,3.8916,4.165,6.3017c2.4424,0.0664,4.9785,1.4151,4.9785,5.0332v12.3711      C48.8027,38.7598,39.7793,52.3379,29.2471,52.3379L29.2471,52.3379z M38.668,5.8838      c-3.9483,2.2734-12.8672,6.2168-20.2393,6.3818c-2.1816,0.0479-3.8682,0.6905-5.0117,1.9082      c-1.8164,1.9346-1.7266,4.6836-1.7256,4.711l0.001,8.7597c0,10.003,8.2656,22.6934,17.5547,22.6934      c9.29,0,17.5556-12.6904,17.5556-22.6934V15.2734c0-2.0146-1.0673-3.0361-3.1709-3.0361c-0.2382,0-0.3964,0.0176-0.4209,0.0205      c-0.5361,0.0645-1.0254-0.2978-1.1132-0.8271C41.8975,10.2334,40.0674,7.6328,38.668,5.8838L38.668,5.8838z" fill="#43525B"/></g><g><path d="M43.9668,41.5527c-0.5527,0-1-0.4472-1-1V25.6953c0-1.6191-1.3164-2.9355-2.9336-2.9355H18.5107      c-1.6191,0-2.9355,1.3164-2.9355,2.9355v14.8574c0,0.5528-0.4473,1-1,1s-1-0.4472-1-1V25.6953      c0-2.7217,2.2139-4.9355,4.9355-4.9355h21.5225c2.7207,0,4.9336,2.2138,4.9336,4.9355v14.8574      C44.9668,41.1055,44.5195,41.5527,43.9668,41.5527L43.9668,41.5527z" fill="#43525B"/></g><g><path d="M41.2881,17.0527c-0.3526,0-0.6943-0.1865-0.876-0.5166c-0.2656-0.4814-0.0937-1.0859,0.3838-1.3545      c0.2354-0.1377,2.1729-1.3818,1.0332-4.4804c-0.1904-0.5186,0.0752-1.0938,0.5928-1.2842      c0.5185-0.1914,1.0937,0.0742,1.2842,0.5928c1.415,3.8457-0.6475,6.207-1.9356,6.9179      C41.6172,17.0127,41.4512,17.0527,41.2881,17.0527L41.2881,17.0527z" fill="#43525B"/></g></g><g><path d="M43.6934,33.2949c0.455-1.0312,1.4843-1.7539,2.6796-1.7539c1.6075,0,2.7696,1.336,2.918,2.9219     c0,0,0.0781,0.3926-0.0937,1.1016c-0.2383,0.9667-0.795,1.8222-1.5391,2.4804l-3.9648,3.4141l-3.8907-3.4141     c-0.75-0.6582-1.3047-1.5137-1.5429-2.4804c-0.17-0.709-0.0957-1.1016-0.0957-1.1016c0.1484-1.5859,1.3105-2.9219,2.9238-2.9219     C42.2832,31.541,43.2441,32.2637,43.6934,33.2949z" fill="#FFA8A6"/><g><path d="M43.6934,42.459c-0.2354,0-0.4707-0.083-0.6592-0.2481l-3.8906-3.414      c-0.9327-0.8184-1.5743-1.8535-1.8545-2.9932c-0.2061-0.8574-0.1348-1.3848-0.1075-1.5264      c0.1914-2.0908,1.876-3.7363,3.9063-3.7363c1.0019,0,1.9228,0.3819,2.6182,1.0479c0.7138-0.6602,1.6601-1.0479,2.6669-1.0479      c2.0157,0,3.6905,1.6279,3.9102,3.792c0.0313,0.2051,0.0693,0.709-0.1143,1.4668c-0.2802,1.1387-0.9189,2.1729-1.8486,2.9941      l-3.9746,3.4229C44.1582,42.3779,43.9258,42.459,43.6934,42.459L43.6934,42.459z M41.0879,32.541      c-1.1416,0-1.834,1.0137-1.9277,2.0147c-0.0088,0.0644-0.0381,0.3173,0.0722,0.7754c0.1807,0.7343,0.6065,1.415,1.2295,1.9619      l3.2373,2.8408l3.3067-2.8467c0.6132-0.542,1.038-1.2236,1.2207-1.9619c0.1084-0.4482,0.0781-0.6973,0.0781-0.6992      c-0.1035-1.0713-0.793-2.085-1.9317-2.085c-0.7617,0-1.4541,0.4541-1.7646,1.1572c-0.1602,0.3633-0.5186,0.5967-0.915,0.5967      c-0.001,0-0.002,0-0.002,0c-0.3975-0.001-0.7559-0.2363-0.915-0.6006C42.4619,32.9717,41.8311,32.541,41.0879,32.541      L41.0879,32.541z" fill="#43525B"/></g></g><g><g><path d="M30.9639,44.6777h-3.4346c-0.5527,0-1-0.4472-1-1c0-0.5527,0.4473-1,1-1h3.4346c0.5527,0,1,0.4473,1,1      C31.9639,44.2305,31.5166,44.6777,30.9639,44.6777L30.9639,44.6777z" fill="#43525B"/></g><g><path d="M25.9209,30.8838h-5.5703c-0.5527,0-1-0.4473-1-1s0.4473-1,1-1h5.5703c0.5527,0,1,0.4473,1,1      S26.4736,30.8838,25.9209,30.8838L25.9209,30.8838z" fill="#43525B"/></g><g><path d="M38.1426,30.8838H32.293c-0.5528,0-1-0.4473-1-1s0.4472-1,1-1h5.8496c0.5527,0,1,0.4473,1,1      S38.6953,30.8838,38.1426,30.8838L38.1426,30.8838z" fill="#43525B"/></g><g><path d="M35.3555,42.5918c-1.0049,0-2.5762-0.2871-3.8535-1.8066c-0.0147-0.0137-0.0284-0.0284-0.043-0.043      c-0.1514-0.1621-0.3994-0.2627-0.6475-0.2627c-0.4619,0-0.5625,0.0928-0.7129,0.3379c-0.3652,0.5898-1.3379,0.5898-1.7031,0      c-0.1631-0.2656-0.2705-0.3379-0.7109-0.3379c-0.2491,0-0.4991,0.1016-0.6524,0.2646c-0.0136,0.0137-0.0273,0.0284-0.042,0.042      c-2.0078,2.3858-4.7373,1.7325-4.8554,1.7012c-0.5352-0.1357-0.8594-0.6797-0.7246-1.2148      c0.1357-0.5332,0.6748-0.8555,1.207-0.7266c0.0859,0.0205,1.7109,0.3652,2.9023-1.1201      c0.0508-0.0635,0.1094-0.1201,0.1729-0.169c0.5264-0.4961,1.2431-0.7773,1.9922-0.7773c0.4463,0,1.0205,0.0547,1.5625,0.3994      c0.5429-0.3447,1.1181-0.3994,1.5644-0.3994c0.752,0,1.4707,0.2832,1.9961,0.7822c0.0606,0.0479,0.1172,0.1026,0.167,0.1641      c1.2197,1.5263,2.8809,1.1269,2.8955,1.1221c0.541-0.1329,1.0801,0.1894,1.2149,0.7246      c0.1347,0.5361-0.1895,1.0791-0.7246,1.2148C36.3174,42.498,35.9287,42.5918,35.3555,42.5918L35.3555,42.5918z" fill="#43525B"/></g></g></g></g></svg>